<svg width="96" height="96" fill="none" xmlns="http://www.w3.org/2000/svg"><path d="M93.52 20.833l-7.968-3.407c-4.508-1.926-9.593-1.52-13.865.327l3.42-8.99c.747-1.992.577-4.101-.484-5.648a4.78 4.78 0 00-3.919-2.07c-1.114 0-2.201.393-3.145 1.126L54.585 12.21c-.04.04-.092.066-.131.118H39.488c-.04-.052-.092-.079-.131-.118L26.397 2.171c-.958-.734-2.046-1.127-3.16-1.127-1.559 0-3.013.774-3.918 2.07-1.061 1.548-1.232 3.657-.472 5.65l3.08 8.125c-3.709-1.062-7.771-1.036-11.467.537l-7.968 3.407c-2.568 1.1-3.263 3.826-1.559 6.093l5.308 7.077c3.263 4.351 8.4 6.645 13.38 6.972l2.084 22.947a10.437 10.437 0 00-2.19 4.39l-.864 3.853-.289 1.246c-.629 2.752-.13 5.583 1.416 7.98a11.328 11.328 0 002.988 3.133c-.04.747.091 1.494.393 2.188l1.926 4.417c1.232 2.83 4.68 3.826 7.51 3.826H61.36c2.818 0 6.278-.996 7.51-3.826l1.926-4.417a4.825 4.825 0 00.393-2.176 11.736 11.736 0 002.975-3.145 10.391 10.391 0 001.428-7.968l-.288-1.27-.891-3.84a10.445 10.445 0 00-2.163-4.364l2.084-22.947c5.57.248 11.703-2.044 15.425-6.999l5.307-7.077c1.704-2.266 1.01-4.993-1.546-6.093zM65.266 89.556c-.38.852-2.005 1.468-3.906 1.468H32.594c-1.9 0-3.525-.616-3.904-1.468l-1.312-2.987c.918.21 1.875.314 2.845.314h33.51c.97 0 1.926-.104 2.83-.301l-1.297 2.974zm-34.611-6.605h-.432a8.963 8.963 0 01-3.88-.864 7.683 7.683 0 01-1.769-1.128 7.29 7.29 0 01-1.494-1.69l-.366-4.076-.21-2.28.851-3.722c.76-3.38 4.129-5.805 8.02-5.805h31.191c3.906 0 7.247 2.425 8.02 5.805l.852 3.722-.196 2.254-.367 4.076c-.014.013-.014.026-.027.039a7.126 7.126 0 01-1.48 1.664 7.296 7.296 0 01-1.77 1.14 8.866 8.866 0 01-3.866.865H30.655zm13.184-39.079V15.211h6.264v28.661c0 5.596 1.678 11.047 4.81 15.583h-15.87c3.118-4.536 4.796-9.987 4.796-15.583zM70.704 4.976c.773 0 1.22 1.088.721 2.398l-3.25 8.532a21.714 21.714 0 00-7.85-3.159l9.632-7.47c.275-.21.525-.301.747-.301zm-6.093 31.99s.013 0 .013.013c.72.315 1.323.838 1.73 1.507.353.576.563 1.258.563 1.979v1.86c0 2.097-1.704 3.8-3.8 3.8h-1.52a3.806 3.806 0 01-3.815-3.8v-1.86c0-2.098 1.704-3.8 3.814-3.8h1.52a3.82 3.82 0 011.495.3zm-28.452 5.36c0 2.097-1.703 3.8-3.8 3.8h-1.52a3.803 3.803 0 01-3.8-3.8v-1.861c0-.197.012-.394.051-.59a3.784 3.784 0 013.748-3.21h1.521c2.097 0 3.8 1.703 3.8 3.8v1.86zm-10.392-26.42l-3.25-8.532c-.498-1.31-.052-2.398.72-2.398.224 0 .486.092.747.301l9.646 7.47c-2.817.538-5.491 1.599-7.863 3.159zm49.747 12.017c.026-.314.04-.629.04-.943a10.07 10.07 0 00-.708-3.723c1.559-.616 3.866-1.074 6.342-.025l3.133 1.336c1.612.694 2.057 2.424.983 3.866l-2.084 2.765c-1.56 2.084-3.643 2.883-5.111 3.185-1.075.222-2.176.262-3.185.104l.59-6.565zm-57.086 0l.603 6.618a8.417 8.417 0 01-1.14-.157c-1.468-.302-3.538-1.1-5.098-3.184l-2.084-2.766c-1.088-1.442-.642-3.172.983-3.866l3.12-1.336c1.624-.695 3.183-.735 4.507-.498a10.117 10.117 0 00-.93 4.246c0 .314.013.629.04.943z" fill="#4E301B"/><path d="M31.979 39.023h-.76c-1.05 0-1.9.852-1.9 1.913v.918c0 1.061.85 1.9 1.9 1.9h.76c1.048 0 1.9-.839 1.9-1.9v-.918a1.904 1.904 0 00-1.9-1.913zm-1.31 1.965a.95.95 0 01.956-.943h.38c.236 0 .446.08.603.223l-1.743 1.743a.81.81 0 01-.196-.55v-.473zm29.407-.052v.918c0 1.061.84 1.9 1.9 1.9h.76c1.049 0 1.9-.839 1.9-1.9v-.918a1.904 1.904 0 00-1.9-1.913h-.76c-1.06 0-1.9.852-1.9 1.913zm1.086.052c0-.523.433-.943.958-.943h.38a.88.88 0 01.603.223l-1.744 1.743a.81.81 0 01-.197-.55v-.473zM40.89 72.127l-3.88-1.468-.117-3.237a.851.851 0 00-.694-.8l-.105-.013-.51.027a.885.885 0 00-.853.773l-.72 6.892a.85.85 0 00.641.931l5.871 1.468a.873.873 0 001.036-.904l-.249-2.988a.824.824 0 00-.42-.681zm17.47-5.491l-.498-.027-.119.013a.85.85 0 00-.694.8l-.105 3.237-3.892 1.468a.852.852 0 00-.42.681l-.235 2.988a.814.814 0 00.288.707.87.87 0 00.734.197l5.87-1.468a.871.871 0 00.656-.93l-.734-6.893a.885.885 0 00-.852-.773z" fill="#4E301B"/></svg>