<svg width="300" height="100" fill="none" xmlns="http://www.w3.org/2000/svg"><path d="M36.56 50.48c-1.627 1.093-3.467 2.093-5.52 3a48.377 48.377 0 01-5.92 2.12 19.48 19.48 0 01-2.6.56c-.907.16-1.787.307-2.64.44l-.96.16c-.293.053-.6.08-.92.08-.107 0-.253-.013-.44-.04-.187-.027-.28-.12-.28-.28 0-.187.12-.333.36-.44.267-.107.533-.187.8-.24a9.4 9.4 0 00.8-.28c.347-.133.68-.267 1-.4.32-.133.653-.267 1-.4 2.16-.88 4.24-1.84 6.24-2.88a25.29 25.29 0 005.56-4.04 30.3 30.3 0 011.76 1.32c.587.427 1.173.867 1.76 1.32zm5 3.2c0 .107-.067.213-.2.32-.133.08-.24.147-.32.2a57.8 57.8 0 01-10.12 4.16c-3.44 1.067-7.04 1.6-10.8 1.6h-.52c-.24 0-.467-.04-.68-.12-.213-.053-.32-.16-.32-.32 0-.107.053-.2.16-.28.107-.08.2-.133.28-.16a5.82 5.82 0 01.64-.2 3.99 3.99 0 00.6-.12c.373-.107.76-.213 1.16-.32.4-.107.787-.213 1.16-.32a77.974 77.974 0 005.2-1.84 54.03 54.03 0 005.36-2.44c1.76-.907 3.28-1.907 4.56-3 .107.08.36.253.76.52s.84.573 1.32.92c.48.32.893.613 1.24.88s.52.44.52.52zm-9.04-6.64a83.277 83.277 0 01-3.16 2.08c-1.2.773-2.48 1.52-3.84 2.24a35.034 35.034 0 01-4.04 1.76c-1.307.453-2.493.68-3.56.68-.267 0-.4-.107-.4-.32 0-.107.053-.187.16-.24.56-.267 1.107-.533 1.64-.8.533-.267 1.053-.56 1.56-.88a40.76 40.76 0 004.36-3.2 46.869 46.869 0 003.96-3.68l3.32 2.36zm17.12 3.56c0 .587-.24 1.013-.72 1.28-.48.267-.973.4-1.48.4-1.493 0-3.027-.253-4.6-.76a25.761 25.761 0 01-4.64-2.12 31.32 31.32 0 01-4.16-2.92c-1.28-1.093-2.387-2.187-3.32-3.28-.427.107-.907.253-1.44.44a6.599 6.599 0 00-2.36 1.4c-.293.267-.6.533-.92.8-2.133 1.653-4.267 3.053-6.4 4.2-2.133 1.12-4.52 2.013-7.16 2.68a3.99 3.99 0 01-.6.12c-.213.027-.427.04-.64.04a.71.71 0 01-.32-.08.384.384 0 01-.12-.28c0-.16.027-.267.08-.32.08-.053.173-.107.28-.16a116.69 116.69 0 005-3.2 37.858 37.858 0 004.44-3.52c1.413-1.28 2.747-2.76 4-4.44v-1.32c-1.067.613-2.16 1.2-3.28 1.76a18.33 18.33 0 01-3.44 1.24c-.507.107-1.027.227-1.56.36a8.137 8.137 0 01-1.6.16.923.923 0 01-.32-.08c-.107-.053-.16-.133-.16-.24 0-.16.067-.28.2-.36.133-.107.253-.187.36-.24l1.36-.72c.48-.24.933-.507 1.36-.8a27.673 27.673 0 003.12-2.48 27.636 27.636 0 002.72-2.88l1.24.76v-3.4h-3.08c.133.053.387.187.76.4.4.187.773.373 1.12.56.373.187.56.333.56.44 0 .08-.04.147-.12.2-1.227.8-2.613 1.48-4.16 2.04-1.52.56-2.987 1-4.4 1.32-.24.053-.493.12-.76.2-.267.053-.533.08-.8.08a.923.923 0 01-.32-.08c-.107-.053-.16-.133-.16-.24 0-.16.053-.28.16-.36.107-.08.213-.147.32-.2.24-.133.48-.253.72-.36.24-.133.48-.28.72-.44a22.44 22.44 0 002.2-1.64 33.98 33.98 0 002-1.92h-4.88v-1.76h14.52v8.32l.96.32c.32.08.64.187.96.32.107.027.187.053.24.08.08.027.12.107.12.24s-.107.347-.32.64a9.16 9.16 0 01-.64.88 7.53 7.53 0 01-.48.56c.16-.08.453-.2.88-.36.427-.16.88-.333 1.36-.52.507-.213.96-.387 1.36-.52.427-.133.707-.2.84-.2s.28.053.44.16c.027 0 .133.147.32.44.213.267.427.547.64.84.213.293.333.467.36.52.773 1.013 1.707 2.013 2.8 3a31.271 31.271 0 003.48 2.72 29.832 29.832 0 003.56 2.08c.187-.533.44-.92.76-1.16.32-.267.76-.4 1.32-.4.4 0 .787.2 1.16.6.373.373.56.76.56 1.16zm-4.52-9.24h-4.6v-2.84c-.827.267-1.733.547-2.72.84a40.19 40.19 0 01-2.96.76c-.987.187-1.907.28-2.76.28-.24 0-.36-.093-.36-.28 0-.133.107-.253.32-.36.213-.133.373-.227.48-.28a52.96 52.96 0 003.92-2.12c1.227-.747 2.4-1.693 3.52-2.84l.56.36V32.6h-2.84l.64.32c.32.16.627.333.92.52.293.16.44.293.44.4 0 .08-.04.147-.12.2-.773.48-1.747.987-2.92 1.52a27.77 27.77 0 01-3.52 1.28c-1.2.347-2.267.52-3.2.52a1.69 1.69 0 01-.32-.04c-.107-.053-.16-.133-.16-.24a.38.38 0 01.16-.32c.107-.08.213-.147.32-.2a19.85 19.85 0 002.72-1.76c.827-.667 1.627-1.4 2.4-2.2h-4.68v-1.72h14.76v10.48zm2.44-15.44c0 .747-.32 1.28-.96 1.6-.64.293-1.267.44-1.88.44h-8.68c-.16.24-.44.573-.84 1-.4.4-.827.76-1.28 1.08-.453.32-.84.48-1.16.48a.64.64 0 01-.4-.16.493.493 0 01-.2-.4v-1c0-.32.013-.653.04-1h-5.92l.12 1.96-4.72.24-.12-2.2h-8.92v-1.88h8.84l-.2-3.48 4.72-.16.2 3.64h6.2c.08-.64.147-1.267.2-1.88.053-.64.12-1.28.2-1.92l5.12.68c.133.027.24.067.32.12.08.027.12.107.12.24 0 .213-.08.507-.24.88-.16.347-.347.693-.56 1.04-.187.347-.347.627-.48.84h5.32a2.925 2.925 0 01.76-1.76c.453-.533 1.027-.8 1.72-.8.773 0 1.413.2 1.92.6.507.4.76 1 .76 1.8zM68.8 34.8c0 .56-.253.987-.76 1.28-.48.267-.96.4-1.44.4h-3.36v3.32l1.36-.64c.453-.213.907-.413 1.36-.6.053.16.173.493.36 1 .213.507.44 1.093.68 1.76.267.64.52 1.28.76 1.92.267.613.48 1.133.64 1.56.16.427.24.653.24.68 0 .187-.08.333-.24.44a.84.84 0 01-.44.12c-.293 0-.72-.187-1.28-.56-.533-.4-1.067-.84-1.6-1.32-.373-.347-.733-.68-1.08-1-.347-.347-.6-.613-.76-.8V58.8h-4.68V43.48c-.453.987-1.107 2.067-1.96 3.24a25.192 25.192 0 01-2.8 3.24c-1.013.987-2.04 1.693-3.08 2.12-.027.027-.093.04-.2.04a.657.657 0 01-.2-.04c-.08-.053-.12-.12-.12-.2 0-.053.04-.133.12-.24.08-.133.173-.293.28-.48.16-.32.333-.653.52-1 .213-.373.347-.613.4-.72a38.819 38.819 0 002.16-5.36 40.787 40.787 0 001.36-5.6l1.76.56c.587.187 1.173.36 1.76.52v-3.08h-6.48v-1.76h6.48v-5.16a130.77 130.77 0 01-3.2.36 43.31 43.31 0 01-3.24.12 2.51 2.51 0 01-.4-.04c-.16-.053-.24-.16-.24-.32 0-.213.16-.36.48-.44a7.63 7.63 0 00.84-.28c.373-.133.627-.213.76-.24a44.959 44.959 0 005.68-2.44 52.734 52.734 0 005.28-3.12c.347.213.773.507 1.28.88.533.373 1.04.747 1.52 1.12.48.347.827.6 1.04.76.133.107.2.24.2.4 0 .24-.28.493-.84.76-.4.213-.92.44-1.56.68-.64.213-1.24.4-1.8.56-.533.16-.907.267-1.12.32v6.08h1.56c0-.533.213-.973.64-1.32.427-.373.893-.56 1.4-.56.533 0 .987.2 1.36.6.4.373.6.827.6 1.36zm7.36 7.36c0 .24-.08.427-.24.56a.986.986 0 01-.56.16.891.891 0 01-.4-.08 5.403 5.403 0 01-.36-.2 67.58 67.58 0 00-3.36-1.84 131.663 131.663 0 01-3.32-1.8l.72-.72a41.55 41.55 0 011.08-1.04c.373-.373.68-.693.92-.96.48-.533.907-.8 1.28-.8.24 0 .533.2.88.6.347.373.707.853 1.08 1.44.4.587.773 1.2 1.12 1.84.347.613.627 1.187.84 1.72.213.507.32.88.32 1.12zm13.6-.12a2.44 2.44 0 01-.52 1.52c-.32.427-.747.707-1.28.84l-5.16 1.4v13.28h-4.6V46.84L67.32 49.6l-.6-2.08L78.2 44.6V24.56h4.6v19l1.96-.52c-.08-.053-.133-.16-.16-.32a3.302 3.302 0 01-.04-.44c0-.72.267-1.32.8-1.8a2.64 2.64 0 011.88-.76c.613 0 1.187.227 1.72.68.533.453.8 1 .8 1.64zm-12.92-8.6c0 .48-.267.72-.8.72a1.07 1.07 0 01-.4-.08 4.78 4.78 0 00-.36-.16 206.56 206.56 0 01-3.36-1.8 205.672 205.672 0 00-3.28-1.88c.16-.16.413-.427.76-.8.347-.4.72-.813 1.12-1.24a13.66 13.66 0 011.2-1.08c.373-.32.653-.48.84-.48.24 0 .533.2.88.6.373.373.747.853 1.12 1.44.4.587.773 1.2 1.12 1.84.347.64.627 1.227.84 1.76.213.533.32.92.32 1.16zm42.56 17.48c0 .827-.333 1.533-1 2.12-.64.56-1.307 1-2 1.32-1.36.64-2.813 1.12-4.36 1.44a23.84 23.84 0 01-4.52.44c-1.28 0-2.56-.12-3.84-.36-1.253-.24-2.44-.64-3.56-1.2a8.683 8.683 0 01-2.84-2.24c-.773-.96-1.307-2.147-1.6-3.56.187-.133.52-.373 1-.72.507-.373 1.013-.72 1.52-1.04.507-.32.853-.48 1.04-.48.24 0 .4.147.48.44.133.4.267.787.4 1.16.133.347.307.707.52 1.08.853 1.44 2.067 2.547 3.64 3.32 1.573.773 3.173 1.16 4.8 1.16 1.093 0 2.147-.08 3.16-.24a20.912 20.912 0 003.08-.8 4.196 4.196 0 01-.52-.76c-.133-.32-.2-.627-.2-.92 0-.587.24-1.093.72-1.52.48-.453 1-.68 1.56-.68.533 0 1.08.187 1.64.56.587.373.88.867.88 1.48zm-2.08-19.64c0 .64-.28 1.32-.84 2.04a12.158 12.158 0 01-1.96 1.92c-.72.587-1.333 1.04-1.84 1.36-.187.133-.4.28-.64.44a7.755 7.755 0 01-.64.36c-.187.08-.4.12-.64.12a.914.914 0 01-.48-.12.534.534 0 01-.2-.44c0-.213.093-.52.28-.92.187-.427.373-.88.56-1.36.187-.507.28-.96.28-1.36 0-.48-.147-.813-.44-1-.267-.213-.6-.347-1-.4a8.128 8.128 0 00-1.08-.16 14.64 14.64 0 00-1.12-.04c-.373-.027-.747-.04-1.12-.04a44.7 44.7 0 00-4.2.2c-1.387.133-2.773.28-4.16.44l.04-2.48c2.853-.24 5.72-.36 8.6-.36 1.6 0 3.2.053 4.8.16a28.81 28.81 0 014.8.64c.213.027.413.107.6.24.267.107.4.36.4.76zm7.56 2.16c0 .08-.053.173-.16.28a.383.383 0 01-.28.12c-.187 0-.507-.08-.96-.24-.453-.16-.96-.36-1.52-.6a68.515 68.515 0 00-1.56-.68c-.48-.213-.853-.36-1.12-.44a6.08 6.08 0 01-.32-.12c-.107-.053-.16-.133-.16-.24 0-.16.16-.427.48-.8.32-.4.653-.76 1-1.08.373-.347.64-.52.8-.52.293 0 .653.173 1.08.52.427.32.84.733 1.24 1.24.427.48.773.96 1.04 1.44.293.453.44.827.44 1.12zm2.48-3.72c0 .08-.053.173-.16.28a.383.383 0 01-.28.12c-.08 0-.307-.08-.68-.24a25.324 25.324 0 00-1.2-.6l-1.28-.68c-.373-.213-.627-.36-.76-.44a3.797 3.797 0 00-.6-.2 6.628 6.628 0 01-.76-.36c-.24-.133-.36-.253-.36-.36 0-.16.16-.427.48-.8.32-.373.667-.72 1.04-1.04.4-.32.68-.48.84-.48.32 0 .693.187 1.12.56.427.373.827.84 1.2 1.4.4.533.733 1.067 1 1.6.267.507.4.92.4 1.24zm34.88 20.32c0 .507-.2 1.013-.6 1.52a7.12 7.12 0 01-1.36 1.32c-.507.373-.96.68-1.36.92-.827.453-1.827.893-3 1.32-1.147.427-2.32.773-3.52 1.04-1.173.293-2.24.44-3.2.44-1.12 0-2.307-.12-3.56-.36a13.515 13.515 0 01-3.56-1.12c-1.093-.56-1.987-1.293-2.68-2.2-.693-.933-1.04-2.093-1.04-3.48 0-1.2.307-2.307.92-3.32a11.862 11.862 0 012.44-2.76 22.777 22.777 0 013.12-2.2 44.92 44.92 0 013.04-1.64 4.547 4.547 0 01-1.16-1.32 7.667 7.667 0 01-.68-1.68c-.107-.373-.2-.747-.28-1.12l-.16-1.12c-.187-1.467-.36-2.933-.52-4.4l-.4-4.4 4.8-.28c.053 1.147.093 2.293.12 3.44.027 1.147.067 2.307.12 3.48l.08 1.8c.027.587.093 1.187.2 1.8.027.133.08.36.16.68.107.293.24.573.4.84.16.24.333.36.52.36.16 0 .427-.107.8-.32.373-.24.747-.467 1.12-.68.4-.213.72-.32.96-.32s.413.04.52.12c.133.08.293.2.48.36.187.16.427.413.72.76.293.32.547.667.76 1.04.24.347.36.653.36.92 0 .427-.16.707-.48.84-.293.133-.627.2-1 .2h-.56a3.161 3.161 0 00-.52-.04c-1.093 0-2.32.173-3.68.52-1.36.347-2.667.867-3.92 1.56-1.227.693-2.253 1.547-3.08 2.56-.8.987-1.2 2.133-1.2 3.44 0 1.227.387 2.24 1.16 3.04a7.175 7.175 0 002.8 1.72c1.12.373 2.2.56 3.24.56 1.493 0 3.067-.187 4.72-.56 1.68-.373 3.2-.88 4.56-1.52-.853-.293-1.28-.907-1.28-1.84 0-.56.253-1.027.76-1.4.533-.4 1.067-.6 1.6-.6.587 0 1.12.2 1.6.6.48.373.72.867.72 1.48zm37.6-7.56c0 1.973-.427 3.813-1.28 5.52a17.372 17.372 0 01-3.36 4.56c-1.227 1.227-2.547 2.213-3.96 2.96a36.717 36.717 0 01-4.52 2c-.267.08-.693.213-1.28.4-.56.187-1.12.36-1.68.52-.56.16-.96.24-1.2.24a.715.715 0 01-.36-.12c-.133-.053-.2-.147-.2-.28 0-.16.067-.293.2-.4a.985.985 0 01.36-.2c.533-.213 1.147-.48 1.84-.8.693-.32 1.307-.653 1.84-1a24.21 24.21 0 004.28-3.48c1.333-1.36 2.4-2.88 3.2-4.56.8-1.68 1.2-3.467 1.2-5.36a9.18 9.18 0 00-.44-2.76c-.267-.96-.72-1.76-1.36-2.4-.64-.64-1.507-.96-2.6-.96-.747 0-1.64.213-2.68.64a21.495 21.495 0 00-3 1.56c-.96.587-1.733 1.12-2.32 1.6a6.21 6.21 0 01-.44.32.986.986 0 01-.56.16c-.267 0-.453-.08-.56-.24a4.64 4.64 0 01-.2-.56 8.1 8.1 0 01-.28-1.48 25.723 25.723 0 00-.12-1.52 27.778 27.778 0 015.08-1.88c1.733-.453 3.52-.68 5.36-.68 2.693 0 4.867.653 6.52 1.96 1.68 1.307 2.52 3.387 2.52 6.24zm-5.24-11.56c0 .24-.133.387-.4.44-.267.027-.48.04-.64.04-.613 0-1.227-.04-1.84-.12a53.52 53.52 0 01-1.8-.36c-.213-.053-.64-.187-1.28-.4-.613-.213-1.28-.453-2-.72a24.008 24.008 0 01-1.8-.84c-.507-.293-.76-.547-.76-.76 0-.08.107-.267.32-.56.213-.32.467-.653.76-1 .32-.373.613-.707.88-1 .267-.293.44-.48.52-.56.213-.16.44-.24.68-.24.16 0 .293.04.4.12.187.107.427.32.72.64l.68.68c.667.747 1.4 1.427 2.2 2.04a67.656 67.656 0 002.48 1.68c.16.107.347.227.56.36.213.133.32.32.32.56zm32.28 16.44l-.08 7.68a22.982 22.982 0 003-.6c1.013-.267 2-.573 2.96-.92a33.6 33.6 0 01-1.52-1.88 51.59 51.59 0 01-1.4-1.96l3.36-1.12a69.948 69.948 0 003.32-1.2h-9.64zm-2.6-12.64v-2.64h-2.96v2.64h2.96zm0-4.28v-2.52h-2.96v2.52h2.96zm6.96 4.28v-2.64h-2.6v2.64h2.6zm0-4.28v-2.52h-2.6v2.52h2.6zm7.72-2.52h-3.32v2.52h.2c.08-.293.24-.52.48-.68.267-.187.547-.28.84-.28.373 0 .68.133.92.4.24.24.36.547.36.92 0 .507-.16.853-.48 1.04-.32.16-.693.24-1.12.24h-1.2v2.64h.56c.933 0 1.627-.253 2.08-.76.453-.533.68-1.253.68-2.16v-3.88zm8.76 30c0 .453-.2.84-.6 1.16-.373.347-.787.52-1.24.52-2.427 0-4.6-.44-6.52-1.32-1.893-.853-3.707-2.093-5.44-3.72a13.68 13.68 0 01-5.36 3.16 38.281 38.281 0 01-6.12 1.4l.08-11.76h-2.04c-.267 2.107-.827 4.067-1.68 5.88-.853 1.787-2.16 3.347-3.92 4.68-.347.267-.813.547-1.4.84-.587.32-1.107.48-1.56.48-.107 0-.2-.053-.28-.16a.433.433 0 01-.08-.24c0-.053.107-.227.32-.52.24-.267.48-.56.72-.88.267-.32.427-.533.48-.64 1.333-1.973 2.173-4.093 2.52-6.36.373-2.267.56-4.573.56-6.92 0-.907-.013-1.8-.04-2.68 0-.907-.013-1.813-.04-2.72H242a2.631 2.631 0 01.6-1.6c.4-.48.92-.72 1.56-.72.613 0 1.16.173 1.64.52.507.32.76.813.76 1.48 0 .72-.227 1.24-.68 1.56-.427.32-.973.48-1.64.48H220.8v2c.027.667.04 1.347.04 2.04 0 .267-.013.547-.04.84 0 .267-.013.547-.04.84h21.96a2.09 2.09 0 01.68-1.36c.427-.373.907-.56 1.44-.56.533 0 1.027.173 1.48.52.453.32.68.76.68 1.32 0 .533-.2.987-.6 1.36-.373.347-.827.52-1.36.52h-4.44c.107.08.307.253.6.52s.573.533.84.8.4.453.4.56c0 .187-.12.347-.36.48-.053.027-.373.067-.96.12-.587.053-1.28.107-2.08.16-.773.053-1.493.107-2.16.16-.667.027-1.107.053-1.32.08.987 1.547 2.187 3 3.6 4.36 1.44 1.36 2.973 2.467 4.6 3.32v-.04c.107-.533.333-.987.68-1.36.373-.347.853-.52 1.44-.52.533 0 .973.187 1.32.56.347.373.52.827.52 1.36zM240.76 42c0 .507-.187.907-.56 1.2-.347.267-.76.4-1.24.4h-15.4v-1.72h13.72c.08-.4.293-.733.64-1a1.8 1.8 0 011.12-.4c.4 0 .787.147 1.16.44.373.293.56.653.56 1.08zm2.88-10c0 1.253-.307 2.187-.92 2.8-.613.587-1.387.973-2.32 1.16-.933.187-1.907.28-2.92.28h-20.64V26.2h7.44v-3.44h4.36v3.44h2.6v-3.4h4.4v3.4h8V32zm29.88 8.4h-8.24v2.96h6.64c.587 0 1-.173 1.24-.52.24-.347.36-.787.36-1.32V40.4zm6.8 11.64c0 .4-.16.76-.48 1.08-.293.32-.653.48-1.08.48-.827 0-1.707-.28-2.64-.84-.933-.56-1.8-1.213-2.6-1.96a26.14 26.14 0 01-1.96-2.08v6.04h-4.4v-6.64a18.402 18.402 0 01-3.56 2.64 13.288 13.288 0 01-4.12 1.56.303.303 0 00-.12.04h-.16a1.16 1.16 0 01-.28-.04.27.27 0 01-.12-.24c0-.16.093-.307.28-.44a31.163 31.163 0 003.6-3.08 22.185 22.185 0 002.92-3.72h-4.44v-6h16.6v2.56c0 1.093-.4 1.947-1.2 2.56-.773.587-1.667.88-2.68.88h-2.32v2.8a74.79 74.79 0 003.24-1.68 26.252 26.252 0 003.04-2.04c.16.133.44.373.84.72.4.347.773.707 1.12 1.08.347.373.52.653.52.84 0 .187-.067.32-.2.4-.107.08-.4.16-.88.24-.48.053-1.027.12-1.64.2-.587.053-1.147.107-1.68.16a62.57 62.57 0 00-1.08.12c.293.613.693 1.32 1.2 2.12.533.8 1.04 1.453 1.52 1.96a1.58 1.58 0 01.52-.72c.267-.213.56-.32.88-.32.373 0 .693.133.96.4.267.24.4.547.4.92zm-.12-16.72c0 .533-.173.96-.52 1.28-.347.32-.787.48-1.32.48h-18.92v-1.64h7.76v-2.72h-5.68v-1.68h5.68v-3h4.4v3h2.4c0-.533.187-.973.56-1.32.4-.373.867-.56 1.4-.56.453 0 .88.187 1.28.56.4.373.6.787.6 1.24 0 .533-.213.96-.64 1.28-.4.32-.853.48-1.36.48h-4.24v2.72h4.84c.053-.533.253-.973.6-1.32.347-.373.787-.56 1.32-.56.48 0 .907.173 1.28.52.373.347.56.76.56 1.24zm.96-8h-22.44L258.64 56h17.8c1.28 0 2.253-.293 2.92-.88.693-.613 1.16-1.4 1.4-2.36.267-.987.4-2.013.4-3.08V27.32zM286 49.4c0 3.173-.72 5.413-2.16 6.72-1.44 1.333-3.733 2-6.88 2h-22.88l.08-32.96H286V49.4zM88.048 74.37c0 .13-.056.196-.168.196h-.098c-.028-.01-.051-.033-.07-.07a.94.94 0 01-.042-.126 1.501 1.501 0 01-.014-.154 9.043 9.043 0 00-.21-.924c-.084-.345-.22-.625-.406-.84-.093-.112-.252-.187-.476-.224a4.17 4.17 0 00-.686-.056h-1.064a1.23 1.23 0 00-.532.112c-.15.075-.224.224-.224.448 0 1.41.005 2.823.014 4.242.019 1.41.028 2.823.028 4.242 0 .121.051.215.154.28.103.056.22.093.35.112.13.019.238.028.322.028h.196c.065-.01.13-.014.196-.014.093 0 .14.042.14.126v.168c0 .065-.033.098-.098.098-.336 0-.672-.005-1.008-.014a17.392 17.392 0 00-.994-.028c-.448 0-.905.014-1.372.042-.103 0-.21.005-.322.014-.112.01-.22.014-.322.014-.084 0-.126-.051-.126-.154 0-.112.014-.182.042-.21.028-.028.093-.042.196-.042.019 0 .037.005.056.014h.056c.103 0 .233-.01.392-.028.159-.019.299-.056.42-.112.13-.065.196-.163.196-.294.01-.719.014-1.437.014-2.156a166.62 166.62 0 000-4.27c-.01-.71-.014-1.419-.014-2.128a.428.428 0 00-.14-.308.426.426 0 00-.28-.154 1.222 1.222 0 00-.266-.028h-1.512c-.336 0-.588.084-.756.252-.159.159-.27.369-.336.63-.065.252-.126.513-.182.784 0 .019-.014.084-.042.196a3.669 3.669 0 01-.07.308.555.555 0 01-.042.154c-.037.047-.093.07-.168.07-.103 0-.154-.051-.154-.154v-.14c.01-.065.019-.14.028-.224.019-.215.033-.471.042-.77.019-.308.033-.593.042-.854.01-.093.014-.187.014-.28 0-.093.005-.177.014-.252 0-.13.08-.187.238-.168.681.065 1.367.098 2.058.098.7-.01 1.39-.014 2.072-.014h2.338l1.176-.028c.168-.01.34-.014.518-.014.187-.01.369-.014.546-.014.121 0 .191.047.21.14.01.028.019.13.028.308.01.168.019.364.028.588.01.215.014.42.014.616.01.187.014.317.014.392l.028.28c.01.093.014.191.014.294zm5.186 5.992c-.037-.42-.06-.84-.07-1.26 0-.43-.005-.859-.014-1.288h-.196c-.29 0-.611.047-.966.14a3.939 3.939 0 00-.994.392 2.498 2.498 0 00-.784.672 1.475 1.475 0 00-.294.91c0 .448.126.789.378 1.022.252.224.593.336 1.022.336.205 0 .43-.047.672-.14.243-.103.476-.224.7-.364.224-.14.406-.28.546-.42zm2.45.896a.196.196 0 01-.014.084.983.983 0 01-.476.476 1.48 1.48 0 01-.644.154c-.392 0-.677-.112-.854-.336a2.904 2.904 0 01-.406-.854 5.448 5.448 0 01-1.176.826c-.43.215-.891.322-1.386.322-.345 0-.672-.065-.98-.196a1.835 1.835 0 01-.728-.602c-.187-.261-.28-.579-.28-.952 0-.392.098-.728.294-1.008.205-.29.462-.532.77-.728a4.574 4.574 0 011.008-.49c.364-.13.705-.229 1.022-.294.215-.047.434-.089.658-.126.224-.037.443-.075.658-.112 0-.261-.014-.565-.042-.91-.019-.345-.089-.63-.21-.854a2.032 2.032 0 00-.49-.574 1.057 1.057 0 00-.686-.252c-.43 0-.765.112-1.008.336-.243.224-.415.541-.518.952a4.9 4.9 0 00-.028.154.715.715 0 01-.014.14c-.01.056-.047.107-.112.154a.322.322 0 01-.182.056.983.983 0 01-.49-.126c-.14-.084-.21-.224-.21-.42 0-.112.019-.21.056-.294.121-.29.317-.527.588-.714.27-.196.57-.345.896-.448.336-.103.649-.154.938-.154.504 0 .961.093 1.372.28a2.3 2.3 0 01.98.826c.252.355.378.803.378 1.344 0 .607-.005 1.218-.014 1.834 0 .616.019 1.232.056 1.848.01.205.051.387.126.546.075.15.229.224.462.224a.958.958 0 00.378-.084c.14-.065.229-.098.266-.098.028 0 .042.023.042.07zm5.193.098c0 .084-.065.168-.196.252a1.98 1.98 0 01-.448.224c-.177.065-.35.117-.518.154a1.72 1.72 0 01-.35.056c-.485 0-.863-.06-1.134-.182a1.077 1.077 0 01-.56-.602c-.102-.28-.154-.658-.154-1.134V77.8l.028-2.338h-1.008a.26.26 0 00-.168.056.205.205 0 01-.126.042c-.046 0-.07-.033-.07-.098a.77.77 0 01.07-.224l.112-.224c.028.01.07.014.126.014h1.092l.014-1.778c.215-.14.41-.294.588-.462l.532-.532a.216.216 0 01.056-.042c.019-.019.038-.028.056-.028.084 0 .126.033.126.098l-.084 2.73c.299 0 .593-.005.882-.014.299-.01.593-.014.882-.014.122 0 .182.07.182.21 0 .177-.079.266-.238.266h-1.708c0 .71-.004 1.423-.014 2.142v3.22c0 .233.098.397.294.49.196.084.388.126.574.126.262 0 .518-.042.77-.126a.549.549 0 01.126-.056.443.443 0 01.126-.028c.094 0 .14.042.14.126zm5.825-4.27a7.994 7.994 0 00-.098-1.092c-.056-.355-.191-.644-.406-.868-.214-.233-.564-.35-1.05-.35-.438 0-.798.121-1.078.364-.27.233-.48.532-.63.896a5.725 5.725 0 00-.336 1.092l.686.028h.672c.374 0 .747-.005 1.12-.014l1.12-.056zm1.61 3.206c0 .047-.009.075-.028.084a1.007 1.007 0 01-.21.336c-.102.13-.219.257-.35.378-.13.112-.238.196-.322.252a4.08 4.08 0 01-1.05.518c-.382.13-.765.196-1.148.196a4.24 4.24 0 01-1.064-.154 3.387 3.387 0 01-.98-.42 3.063 3.063 0 01-1.148-1.358 4.368 4.368 0 01-.364-1.75c0-.69.136-1.33.406-1.918.271-.588.705-1.064 1.302-1.428.271-.159.574-.29.91-.392.336-.112.658-.168.966-.168.551 0 1.036.112 1.456.336.42.224.747.541.98.952.243.401.364.882.364 1.442 0 .159-.037.261-.112.308-.065.047-.168.07-.308.07-.186 0-.373-.005-.56-.014l-.56-.028a10.96 10.96 0 00-.784-.028h-1.722c-.317 0-.634.01-.952.028l-.028.434c-.009.14-.014.285-.014.434 0 .345.042.705.126 1.078.084.364.22.705.406 1.022.187.308.425.56.714.756.29.187.64.28 1.05.28.42 0 .822-.065 1.204-.196.383-.13.733-.34 1.05-.63.084-.084.159-.173.224-.266.075-.103.154-.191.238-.266a.215.215 0 01.154-.07c.047 0 .084.019.112.056.028.037.042.08.042.126zm6.103-.294c0 .42-.093.765-.28 1.036a1.835 1.835 0 01-.728.602 3.63 3.63 0 01-.98.294c-.355.056-.7.084-1.036.084-.308 0-.616-.033-.924-.098a7.397 7.397 0 00-.91-.14l-.196-.756a9.468 9.468 0 00-.196-.742l-.07-.196a1.823 1.823 0 01-.042-.168c0-.075.023-.126.07-.154a.262.262 0 01.168-.056c.065 0 .112.023.14.07a.783.783 0 01.14.266l.126.294c.075.15.14.266.196.35.056.075.145.173.266.294.364.383.817.574 1.358.574.299 0 .569-.033.812-.098.252-.065.453-.187.602-.364.149-.187.224-.453.224-.798 0-.299-.093-.546-.28-.742a2.655 2.655 0 00-.728-.546 14.003 14.003 0 00-.924-.462 9.887 9.887 0 01-.938-.49 2.602 2.602 0 01-.714-.672c-.187-.261-.28-.579-.28-.952 0-.457.117-.83.35-1.12.243-.29.551-.504.924-.644.373-.15.761-.224 1.162-.224.261 0 .495.033.7.098.215.065.439.14.672.224a.983.983 0 00.224.056c.075.01.149.014.224.014h.126a.462.462 0 00.112-.014c.028.168.051.34.07.518.028.168.051.34.07.518.009.065.019.145.028.238.019.084.028.163.028.238a.6.6 0 01-.042.21c-.028.065-.084.098-.168.098a.877.877 0 01-.168-.014c-.037-.019-.07-.06-.098-.126a2.647 2.647 0 01-.126-.294 2.444 2.444 0 00-.098-.308 1.57 1.57 0 00-.63-.784 1.674 1.674 0 00-.966-.308c-.439 0-.77.13-.994.392-.224.252-.336.593-.336 1.022 0 .15.037.294.112.434.084.14.177.261.28.364.196.187.425.331.686.434.271.103.527.205.77.308.317.14.644.308.98.504.345.196.635.434.868.714.243.28.364.62.364 1.022zm9.216 1.848c0 .047-.023.084-.07.112a.37.37 0 01-.14.028c-.233 0-.471-.005-.714-.014a8.924 8.924 0 00-.714-.028c-.27 0-.546.01-.826.028-.27.019-.541.028-.812.028-.046 0-.079-.028-.098-.084a1.217 1.217 0 01-.014-.154c0-.065.033-.098.098-.098.103 0 .201.005.294.014h.294c.122 0 .215-.037.28-.112a.49.49 0 00.126-.294c.019-.233.024-.467.014-.7V77.38c0-.28-.009-.56-.028-.84a3.754 3.754 0 00-.042-.35 1.409 1.409 0 00-.07-.35 1.09 1.09 0 00-.462-.574 1.235 1.235 0 00-.714-.21c-.317 0-.63.084-.938.252-.308.159-.564.36-.77.602a3.88 3.88 0 00-.49.686 1.843 1.843 0 00-.196.616c-.018.215-.028.495-.028.84v2.464c0 .103-.004.247-.014.434 0 .187.024.355.07.504.056.15.164.224.322.224.094 0 .182-.005.266-.014.084-.01.173-.014.266-.014.084 0 .126.047.126.14a.368.368 0 01-.028.14c-.009.037-.042.056-.098.056-.317 0-.644-.005-.98-.014a17.118 17.118 0 00-.98-.028c-.298 0-.602.014-.91.042a.313.313 0 00-.098.014h-.098c-.046 0-.084-.023-.112-.07a.482.482 0 01-.028-.14c0-.103.052-.154.154-.154.056 0 .112.005.168.014h.182c.131 0 .266-.019.406-.056.15-.047.229-.154.238-.322.019-.308.024-.616.014-.924v-2.632a104.62 104.62 0 000-3.486l-.028-1.792c0-.103-.018-.215-.056-.336-.037-.13-.121-.196-.252-.196-.13 0-.266.01-.406.028-.14.019-.28.028-.42.028-.084 0-.126-.037-.126-.112 0-.084.042-.14.126-.168a6.35 6.35 0 01.546-.112c.187-.028.369-.06.546-.098.159-.037.346-.089.56-.154.224-.075.411-.112.56-.112.056 0 .089.019.098.056.01.028.014.065.014.112v2.296c0 .765-.009 1.53-.028 2.296a5.83 5.83 0 01.742-.644c.299-.215.616-.392.952-.532a2.34 2.34 0 01.952-.224c.607 0 1.083.089 1.428.266.346.177.588.453.728.826.14.364.21.84.21 1.428 0 .7-.004 1.4-.014 2.1v2.086c0 .15.038.257.112.322a.627.627 0 00.35.084c.066 0 .126-.005.182-.014a1.4 1.4 0 01.196-.014c.047 0 .089.023.126.07.038.037.056.08.056.126zm4.575-.056a.27.27 0 01-.042.14.134.134 0 01-.112.056 22 22 0 01-.784-.014 10.613 10.613 0 00-.784-.028h-.378c-.28 0-.56.01-.84.028-.271.01-.542.014-.812.014-.038 0-.066-.023-.084-.07a.55.55 0 01-.014-.112.23.23 0 01.014-.098c.009-.028.037-.047.084-.056a.282.282 0 01.154-.014h.182c.065 0 .126.005.182.014h.182c.13 0 .247-.028.35-.084.112-.065.168-.173.168-.322v-5.6c0-.159-.028-.28-.084-.364-.056-.093-.173-.14-.35-.14-.131 0-.266.01-.406.028-.131.01-.262.023-.392.042-.075 0-.112-.042-.112-.126 0-.093.037-.154.112-.182.112-.037.228-.06.35-.07.13-.019.252-.037.364-.056a19.271 19.271 0 001.554-.336.364.364 0 01.112-.014c.102 0 .154.056.154.168 0 1.101-.005 2.207-.014 3.318v3.332c0 .15.065.257.196.322.14.056.27.084.392.084.093 0 .186-.005.28-.014.102-.01.2-.014.294-.014.037 0 .06.023.07.07a.63.63 0 01.014.098zm-1.134-9.688a.822.822 0 01-.252.602.847.847 0 01-.602.238.845.845 0 01-.602-.238.822.822 0 01-.252-.602c0-.233.084-.43.252-.588a.82.82 0 01.602-.252c.233 0 .434.084.602.252a.777.777 0 01.252.588zm10.146 9.688c0 .121-.07.182-.21.182-.205 0-.415-.005-.63-.014a7.417 7.417 0 00-.644-.028c-.317 0-.644.01-.98.028-.327.01-.653.014-.98.014-.037 0-.061-.028-.07-.084a1.217 1.217 0 01-.014-.154c0-.075.047-.112.14-.112h.224c.047 0 .093.005.14.014h.154c.271 0 .42-.135.448-.406.028-.55.037-1.106.028-1.666v-2.296a40.81 40.81 0 00-.042-.784 3.099 3.099 0 00-.126-.77c-.149-.485-.476-.728-.98-.728-.457 0-.877.117-1.26.35a3.728 3.728 0 00-.994.882c-.009.681-.014 1.358-.014 2.03v2.982c0 .14.061.243.182.308a.762.762 0 00.364.098c.075 0 .145-.005.21-.014a.87.87 0 01.21-.028c.037 0 .061.023.07.07a.633.633 0 01.014.112.25.25 0 01-.042.126c-.019.047-.056.07-.112.07-.205 0-.411-.005-.616-.014a6.342 6.342 0 00-.602-.028c-.317 0-.635.01-.952.028-.317.01-.639.014-.966.014-.047 0-.075-.028-.084-.084v-.154c0-.075.042-.112.126-.112h.196c.047 0 .093.005.14.014h.14c.271 0 .42-.135.448-.406.009-.13.014-.261.014-.392v-2.8c0-.812-.005-1.62-.014-2.422a.988.988 0 00-.084-.392c-.056-.13-.163-.196-.322-.196a1.11 1.11 0 00-.35.056 1.102 1.102 0 01-.35.056c-.065 0-.098-.047-.098-.14v-.056a.152.152 0 01.028-.056c.009-.01.023-.014.042-.014a.152.152 0 00.042-.028 3.18 3.18 0 01.518-.098c.187-.019.364-.047.532-.084.159-.028.313-.065.462-.112.149-.056.299-.084.448-.084.065 0 .117.033.154.098.047.084.084.205.112.364.028.15.047.303.056.462.019.159.028.29.028.392.205-.205.448-.406.728-.602.289-.205.588-.373.896-.504.317-.14.625-.21.924-.21.859 0 1.437.191 1.736.574.308.373.462.966.462 1.778 0 .728-.005 1.456-.014 2.184v2.184c0 .177.051.299.154.364a.867.867 0 00.392.084c.075 0 .149-.005.224-.014a.87.87 0 01.21-.028c.056 0 .093.023.112.07.028.037.042.08.042.126zm5.276-1.428c-.038-.42-.061-.84-.07-1.26 0-.43-.005-.859-.014-1.288h-.196c-.29 0-.612.047-.966.14a3.924 3.924 0 00-.994.392 2.487 2.487 0 00-.784.672 1.475 1.475 0 00-.294.91c0 .448.126.789.378 1.022.252.224.592.336 1.022.336.205 0 .429-.047.672-.14a5.02 5.02 0 00.7-.364c.224-.14.406-.28.546-.42zm2.45.896a.2.2 0 01-.014.084.985.985 0 01-.476.476 1.48 1.48 0 01-.644.154c-.392 0-.677-.112-.854-.336a2.886 2.886 0 01-.406-.854 5.463 5.463 0 01-1.176.826 3.06 3.06 0 01-1.386.322 2.48 2.48 0 01-.98-.196 1.828 1.828 0 01-.728-.602c-.187-.261-.28-.579-.28-.952 0-.392.098-.728.294-1.008.205-.29.462-.532.77-.728a4.56 4.56 0 011.008-.49c.364-.13.704-.229 1.022-.294.214-.047.434-.089.658-.126.224-.037.443-.075.658-.112 0-.261-.014-.565-.042-.91-.019-.345-.089-.63-.21-.854a2.049 2.049 0 00-.49-.574 1.058 1.058 0 00-.686-.252c-.43 0-.766.112-1.008.336-.243.224-.416.541-.518.952a3.08 3.08 0 00-.028.154.739.739 0 01-.014.14c-.01.056-.047.107-.112.154a.323.323 0 01-.182.056.98.98 0 01-.49-.126c-.14-.084-.21-.224-.21-.42 0-.112.018-.21.056-.294a1.61 1.61 0 01.588-.714 3.09 3.09 0 01.896-.448c.336-.103.648-.154.938-.154.504 0 .961.093 1.372.28a2.3 2.3 0 01.98.826c.252.355.378.803.378 1.344 0 .607-.005 1.218-.014 1.834 0 .616.018 1.232.056 1.848.009.205.051.387.126.546.074.15.228.224.462.224a.96.96 0 00.378-.084c.14-.065.228-.098.266-.098.028 0 .042.023.042.07zm14.279-3.57a.294.294 0 01-.042.154c-.028.047-.075.07-.14.07h-.868v2.996a30.69 30.69 0 00-1.946.742c-.308.13-.635.215-.98.252a9 9 0 01-.994.056 5.09 5.09 0 01-.938-.098 6.218 6.218 0 01-1.008-.28 4.424 4.424 0 01-.84-.42 4.387 4.387 0 01-1.582-1.848 5.863 5.863 0 01-.504-2.408c0-.719.112-1.395.336-2.03a5.235 5.235 0 01.994-1.68 4.526 4.526 0 011.54-1.134c.607-.28 1.283-.42 2.03-.42a5.54 5.54 0 011.582.224c.084.028.219.07.406.126l.56.168c.187.047.313.07.378.07.196 0 .331-.023.406-.07a.602.602 0 00.168-.182.47.47 0 01.196-.154h.112c.075 0 .117.042.126.126.019.093.023.191.014.294v.308c0 .29.005.579.014.868.019.29.028.583.028.882 0 .112-.005.243-.014.392 0 .15-.084.224-.252.224a.792.792 0 01-.154-.014.351.351 0 01-.112-.098 5.612 5.612 0 01-.07-.154l-.112-.28a3.7 3.7 0 00-1.19-1.638 2.845 2.845 0 00-.966-.49 3.538 3.538 0 00-1.064-.182c-.625 0-1.157.154-1.596.462a3.4 3.4 0 00-1.064 1.176 5.64 5.64 0 00-.588 1.568 7.685 7.685 0 00-.182 1.624c0 .55.065 1.092.196 1.624s.331 1.013.602 1.442c.28.43.644.775 1.092 1.036.448.252.985.378 1.61.378.187 0 .411-.019.672-.056.261-.037.523-.103.784-.196.261-.093.476-.22.644-.378a.774.774 0 00.266-.602V78.29c0-.15-.075-.243-.224-.28a1.176 1.176 0 00-.364-.07c-.14 0-.28.01-.42.028-.14.01-.28.014-.42.014-.075 0-.126-.023-.154-.07a.446.446 0 01-.028-.168c0-.056.009-.107.028-.154.019-.056.065-.084.14-.084.149 0 .294.005.434.014h1.904c.159 0 .317-.005.476-.014.159 0 .313-.005.462-.014.149-.019.299-.028.448-.028.056 0 .098.028.126.084a.27.27 0 01.042.14zm6.85.616a7.52 7.52 0 00-.098-1.204 3.724 3.724 0 00-.336-1.134 1.952 1.952 0 00-.7-.826c-.308-.215-.71-.322-1.204-.322-.467 0-.85.112-1.148.336a2.34 2.34 0 00-.686.868 4.52 4.52 0 00-.336 1.148 8.62 8.62 0 00-.084 1.162c0 .401.028.803.084 1.204.065.401.182.765.35 1.092.168.317.406.574.714.77.317.196.723.294 1.218.294.485 0 .872-.103 1.162-.308.298-.205.522-.476.672-.812.158-.336.261-.7.308-1.092.056-.401.084-.793.084-1.176zm1.442.042c0 .7-.168 1.33-.504 1.89a3.61 3.61 0 01-1.344 1.33 3.68 3.68 0 01-1.89.49 3.55 3.55 0 01-1.848-.49 3.811 3.811 0 01-1.316-1.33 3.625 3.625 0 01-.49-1.862c0-.7.158-1.344.476-1.932A3.874 3.874 0 01161.901 75c.56-.364 1.204-.546 1.932-.546.784 0 1.451.168 2.002.504.55.327.966.784 1.246 1.372.289.579.434 1.25.434 2.016zm5.741 3.01c0 .084-.065.168-.196.252a2.002 2.002 0 01-.448.224c-.177.065-.35.117-.518.154a1.72 1.72 0 01-.35.056c-.485 0-.863-.06-1.134-.182a1.078 1.078 0 01-.56-.602c-.103-.28-.154-.658-.154-1.134V77.8l.028-2.338h-1.008a.262.262 0 00-.168.056.203.203 0 01-.126.042c-.047 0-.07-.033-.07-.098a.76.76 0 01.07-.224l.112-.224c.028.01.07.014.126.014h1.092l.014-1.778c.215-.14.411-.294.588-.462l.532-.532a.218.218 0 01.056-.042c.019-.019.037-.028.056-.028.084 0 .126.033.126.098l-.084 2.73c.299 0 .593-.005.882-.014.299-.01.593-.014.882-.014.121 0 .182.07.182.21 0 .177-.079.266-.238.266h-1.708c0 .71-.005 1.423-.014 2.142v3.22c0 .233.098.397.294.49.196.084.387.126.574.126.261 0 .518-.042.77-.126a.549.549 0 01.126-.056.443.443 0 01.126-.028c.093 0 .14.042.14.126zm6.707-3.052a7.52 7.52 0 00-.098-1.204 3.724 3.724 0 00-.336-1.134 1.952 1.952 0 00-.7-.826c-.308-.215-.709-.322-1.204-.322-.467 0-.849.112-1.148.336a2.35 2.35 0 00-.686.868 4.52 4.52 0 00-.336 1.148 8.62 8.62 0 00-.084 1.162c0 .401.028.803.084 1.204.065.401.182.765.35 1.092.168.317.406.574.714.77.317.196.723.294 1.218.294.485 0 .873-.103 1.162-.308a1.9 1.9 0 00.672-.812c.159-.336.261-.7.308-1.092.056-.401.084-.793.084-1.176zm1.442.042c0 .7-.168 1.33-.504 1.89a3.61 3.61 0 01-1.344 1.33 3.68 3.68 0 01-1.89.49 3.555 3.555 0 01-1.848-.49 3.82 3.82 0 01-1.316-1.33 3.625 3.625 0 01-.49-1.862c0-.7.159-1.344.476-1.932A3.874 3.874 0 01175.791 75c.56-.364 1.204-.546 1.932-.546.784 0 1.451.168 2.002.504.551.327.966.784 1.246 1.372.289.579.434 1.25.434 2.016zm12.56-4.606a.266.266 0 01-.098.21.298.298 0 01-.196.07c-.094 0-.154-.019-.182-.056a1.133 1.133 0 01-.084-.182c-.159-.504-.402-.877-.728-1.12-.327-.243-.761-.364-1.302-.364h-2.548v4.214c.429-.01.858-.014 1.288-.014.429-.01.858-.033 1.288-.07.28-.019.555-.051.826-.098l.812-.14h.028c.018 0 .037.01.056.028.028.01.042.023.042.042 0 .065-.033.182-.098.35l-.14.336c-.047.112-.117.168-.21.168h-.21a8.76 8.76 0 00-1.204-.084 32.07 32.07 0 00-.98-.014h-.434a3.06 3.06 0 00-.504.042.851.851 0 00-.406.182c-.103.084-.154.215-.154.392v3.164c0 .103.023.2.07.294.056.084.121.163.196.238a.97.97 0 00.518.224c.214.019.41.028.588.028.13 0 .196.07.196.21 0 .15-.084.224-.252.224-.15 0-.304-.005-.462-.014a4.076 4.076 0 00-.476-.028h-.574a11.283 11.283 0 00-1.512.028 15.49 15.49 0 01-.952.028.247.247 0 01-.126-.042.171.171 0 01-.056-.126.63.63 0 01.014-.154c.018-.047.065-.075.14-.084a.973.973 0 01.238-.028l.238-.028c.345-.075.56-.21.644-.406.093-.205.14-.467.14-.784v-7.49c0-.215-.075-.355-.224-.42a1.324 1.324 0 00-.532-.098h-.504c-.178 0-.266-.08-.266-.238a.61.61 0 01.028-.196c.028-.056.084-.084.168-.084.168 0 .336.005.504.014.177.01.35.014.518.014h2.464c.466 0 .933-.005 1.4-.014.476-.019.947-.028 1.414-.028.429 0 .858-.014 1.288-.042.046.28.107.607.182.98.084.373.126.695.126.966zm5.199 6.622c-.038-.42-.061-.84-.07-1.26 0-.43-.005-.859-.014-1.288h-.196c-.29 0-.612.047-.966.14a3.924 3.924 0 00-.994.392 2.487 2.487 0 00-.784.672 1.475 1.475 0 00-.294.91c0 .448.126.789.378 1.022.252.224.592.336 1.022.336.205 0 .429-.047.672-.14a5.02 5.02 0 00.7-.364c.224-.14.406-.28.546-.42zm2.45.896a.2.2 0 01-.014.084.985.985 0 01-.476.476 1.48 1.48 0 01-.644.154c-.392 0-.677-.112-.854-.336a2.886 2.886 0 01-.406-.854 5.463 5.463 0 01-1.176.826 3.06 3.06 0 01-1.386.322 2.48 2.48 0 01-.98-.196 1.828 1.828 0 01-.728-.602c-.187-.261-.28-.579-.28-.952 0-.392.098-.728.294-1.008.205-.29.462-.532.77-.728a4.56 4.56 0 011.008-.49c.364-.13.704-.229 1.022-.294.214-.047.434-.089.658-.126.224-.037.443-.075.658-.112 0-.261-.014-.565-.042-.91-.019-.345-.089-.63-.21-.854a2.049 2.049 0 00-.49-.574 1.058 1.058 0 00-.686-.252c-.43 0-.766.112-1.008.336-.243.224-.416.541-.518.952a3.08 3.08 0 00-.028.154.739.739 0 01-.014.14c-.01.056-.047.107-.112.154a.323.323 0 01-.182.056.98.98 0 01-.49-.126c-.14-.084-.21-.224-.21-.42 0-.112.018-.21.056-.294a1.61 1.61 0 01.588-.714 3.09 3.09 0 01.896-.448c.336-.103.648-.154.938-.154.504 0 .961.093 1.372.28a2.3 2.3 0 01.98.826c.252.355.378.803.378 1.344 0 .607-.005 1.218-.014 1.834 0 .616.018 1.232.056 1.848.009.205.051.387.126.546.074.15.228.224.462.224a.96.96 0 00.378-.084c.14-.065.228-.098.266-.098.028 0 .042.023.042.07zm6.187-5.488a.394.394 0 01-.112.266.319.319 0 01-.252.112c-.14 0-.243-.047-.308-.14a2.102 2.102 0 01-.154-.322.844.844 0 00-.182-.322c-.084-.093-.224-.14-.42-.14h-.112a.41.41 0 00-.098.014c-.159.028-.331.126-.518.294a4.297 4.297 0 00-.546.602 4.413 4.413 0 00-.42.672c-.112.224-.173.41-.182.56-.009.15-.014.299-.014.448v1.932c.009.504.014 1.003.014 1.498 0 .14.056.243.168.308a.862.862 0 00.364.084c.093 0 .187-.005.28-.014.093-.01.187-.014.28-.014.047 0 .079.023.098.07a.244.244 0 01.028.112c0 .15-.075.224-.224.224-.28 0-.56-.005-.84-.014-.28-.019-.56-.028-.84-.028-.289 0-.583.01-.882.028-.289.019-.583.028-.882.028-.037 0-.065-.028-.084-.084a.921.921 0 01-.014-.14c0-.093.037-.145.112-.154.103-.019.21-.023.322-.014.112.01.215.014.308.014.14 0 .252-.028.336-.084.093-.065.145-.173.154-.322.019-.299.028-.602.028-.91.009-.308.014-.616.014-.924v-1.358a53.104 53.104 0 01-.014-1.19c.009-.401-.005-.798-.042-1.19-.009-.187-.061-.317-.154-.392-.093-.084-.233-.126-.42-.126-.075 0-.154.01-.238.028-.075.01-.154.014-.238.014-.075 0-.112-.056-.112-.168 0-.065.033-.112.098-.14.093-.028.191-.047.294-.056.103-.019.201-.033.294-.042l.756-.14c.252-.047.504-.103.756-.168a.3.3 0 01.182.154c.019.037.033.14.042.308.009.168.014.364.014.588v1.008c.205-.327.439-.653.7-.98a3.68 3.68 0 01.896-.812 2.061 2.061 0 011.134-.322c.224 0 .369.07.434.21.065.14.107.303.126.49.019.103.033.21.042.322.019.112.028.22.028.322zm12.885 6.048c0 .13-.052.196-.154.196-.262 0-.528-.01-.798-.028a11.8 11.8 0 00-1.638 0 11.8 11.8 0 01-.812.028c-.038 0-.066-.023-.084-.07a.55.55 0 01-.014-.112c0-.084.042-.135.126-.154a1.02 1.02 0 01.294-.014c.112.01.196.014.252.014a.51.51 0 00.322-.098c.084-.065.126-.163.126-.294 0-.625.004-1.246.014-1.862.018-.616.028-1.232.028-1.848v-.308c0-.103-.005-.205-.014-.308-.01-.224-.024-.453-.042-.686a2.57 2.57 0 00-.112-.672 1.056 1.056 0 00-.336-.518c-.159-.13-.388-.196-.686-.196-.215 0-.453.065-.714.196a5.71 5.71 0 00-1.316.91c.018.13.028.266.028.406v1.218c.009.27.014.541.014.812 0 .476-.005.952-.014 1.428v1.428c0 .14.06.238.182.294a.859.859 0 00.364.084c.074 0 .149-.005.224-.014a1.89 1.89 0 01.224-.014c.046 0 .074.023.084.07a.339.339 0 01.028.112.27.27 0 01-.042.14c-.028.037-.07.056-.126.056-.262 0-.528-.01-.798-.028a11.207 11.207 0 00-1.596 0 11.8 11.8 0 01-.812.028c-.038 0-.066-.023-.084-.07a.315.315 0 01-.028-.112c0-.075.037-.126.112-.154a.803.803 0 01.266-.014c.112.01.205.014.28.014a.57.57 0 00.322-.084c.093-.065.14-.168.14-.308v-3.57c0-.196-.005-.439-.014-.728 0-.29-.019-.574-.056-.854a2.289 2.289 0 00-.154-.686.772.772 0 00-.336-.392.935.935 0 00-.504-.14c-.243 0-.49.06-.742.182-.252.121-.49.27-.714.448a4.55 4.55 0 00-.574.532v5.194c0 .14.051.243.154.308a.687.687 0 00.336.084c.074 0 .149-.005.224-.014a.858.858 0 01.21-.028c.037 0 .06.028.07.084a.63.63 0 01.014.098.27.27 0 01-.042.14c-.019.037-.056.056-.112.056-.178 0-.355-.005-.532-.014a5.084 5.084 0 00-.532-.028c-.355 0-.71.01-1.064.028-.355.01-.71.014-1.064.014-.038 0-.066-.023-.084-.07a.315.315 0 01-.028-.112c0-.112.046-.168.14-.168.102 0 .2.005.294.014h.28c.13 0 .242-.028.336-.084.093-.065.14-.168.14-.308 0-.943-.005-1.885-.014-2.828v-2.842c0-.103-.01-.205-.028-.308a.264.264 0 00-.182-.21.532.532 0 00-.21-.042c-.122 0-.243.019-.364.056a1.685 1.685 0 01-.378.042c-.084 0-.126-.056-.126-.168 0-.075.028-.121.084-.14a.408.408 0 01.154-.028l.182-.028c.214-.028.429-.06.644-.098a37.849 37.849 0 00.882-.196c.084-.019.168-.028.252-.028.112 0 .186.084.224.252.046.159.07.331.07.518.009.187.014.322.014.406.196-.168.415-.34.658-.518.242-.187.499-.345.77-.476.27-.13.541-.196.812-.196.476 0 .877.08 1.204.238.326.159.606.457.84.896.205-.177.438-.355.7-.532.261-.187.532-.34.812-.462.289-.13.574-.196.854-.196.616 0 1.082.089 1.4.266.326.177.546.453.658.826.121.364.182.835.182 1.414 0 .728-.005 1.46-.014 2.198-.01.728-.014 1.46-.014 2.198 0 .14.06.238.182.294.13.056.256.084.378.084.074 0 .144-.005.21-.014.074-.01.144-.014.21-.014.037 0 .06.023.07.07a.339.339 0 01.028.112z" fill="#4E301B"/></svg>